<svg xmlns="http://www.w3.org/2000/svg">
  <symbol id="icon-ghost1" viewBox="0 0 43 32">
  <title>ghost1</title>
  <path d="M24.022 5.013l0.068 0.042 0.52-3.694-3.106 1.858c-4.409-2.34-9.191-2.417-9.191-2.417-0.12-0.003-0.261-0.005-0.403-0.005-1.036 0-2.051 0.088-3.039 0.258l0.106-0.015c-0.33 0.070-0.622 0.173-0.896 0.308l0.022-0.010-3.166-1.339 0.987 3.239c-3.484 4.505-5.778 15.323-5.923 28.761 0.881-0.848 1.896-1.564 3.008-2.112l0.070-0.031c3.709-1.794 7.386-1.226 8.724-0.952 0 0 4.106 2.857 6.415 0.714 0 0 4.106-1.905 6.928 0 4.819-10.353 3.193-20.289-1.123-24.605zM6.63 2.424l-0.243 0.178-0.523-1.667 1.713 0.702c-0.355 0.239-0.665 0.498-0.946 0.785l-0.001 0.001zM12.191 14.020c-1.417 0-2.567-1.547-2.567-3.453s1.149-3.453 2.567-3.453 2.566 1.546 2.566 3.453-1.152 3.453-2.568 3.453zM24.079 2.347l-0.285 1.668-1.512-0.782zM21.297 16.401c-1.489 0-2.695-1.759-2.695-3.928s1.206-3.93 2.695-3.93 2.694 1.759 2.694 3.93-1.206 3.928-2.694 3.928z"></path>
  </symbol>

  <symbol id="icon-ghost2" viewBox="0 0 43 32">
  <title>ghost2</title>
  <path d="M3.37 26c0.039-0.037 0.076-0.076 0.114-0.114h-0.007z"></path>
  <path d="M26.122 8.201l-1.177 0.31-0.904-0.859-0.091 1.289-1.046 0.65 1.12 0.49 0.258 1.263 0.788-0.988 1.206 0.136-0.637-1.1zM24.858 9.955l-0.333 0.407-0.11-0.524-0.478-0.202 0.445-0.272 0.039-0.534 0.384 0.358 0.502-0.126-0.208 0.49 0.272 0.455z"></path>
  <path d="M18.645 8.172l-1.179 0.306-0.904-0.859-0.090 1.289-1.043 0.65 1.122 0.49 0.257 1.263 0.785-0.986 1.206 0.136-0.637-1.1zM17.339 9.883l-0.334 0.407-0.109-0.524-0.478-0.202 0.445-0.272 0.039-0.534 0.384 0.356 0.502-0.126-0.208 0.49 0.272 0.455z"></path>
  <path d="M31.13 6.873c-0.327-2.308-1.241-4.717-3.123-5.905-0.995-0.626-2.172-0.853-3.324-0.934-2.411-0.168-4.888 0.272-7.032 1.449-2.942 1.614-5.111 4.504-6.686 7.604s-2.646 6.47-3.954 9.708c-1.37 3.36-2.791 6.181-4.403 8.875l0.164-0.296c-0.798 1.358-1.659 2.686-2.767 3.758 1.115 0.75 2.58 0.496 3.822 0.042s2.496-1.096 3.817-1.039c2.159 0.094 4.028 2.037 6.182 1.852 2.026-0.17 3.453-2.11 5.174-3.259 1.145-0.765 2.554-1.221 4.069-1.221 1.383 0 2.678 0.38 3.785 1.042l-0.034-0.019q1.416-4.114 2.619-8.303c1.24-4.335 2.323-8.876 1.69-13.355zM17.874 11.090l-1.591 1.912-0.5-2.47-2.254-0.98 2.117-1.253 0.201-2.515 1.81 1.694 2.373-0.578-0.999 2.308 1.265 2.153zM25.405 11.12l-1.593 1.912-0.498-2.47-2.253-0.979 2.117-1.255 0.202-2.515 1.806 1.696 2.375-0.58-1.001 2.308 1.265 2.158z"></path>
  </symbol>

  <symbol id="icon-ghost3" viewBox="0 0 43 32">
  <title>ghost3</title>
  <path d="M19.246 24.835c-0.55-7.242 0.068-14.739-2.943-21.513-0.325-0.73-0.702-1.462-1.33-2.033-1.152-1.044-3.042-1.38-4.701-1.038s-3.082 1.287-4.13 2.439c-1.375 1.508-2.132 3.343-2.738 5.17-1.903 5.743-2.388 11.754-1.68 17.662 0.93 0.62 2.445 0.754 3.543 0.352 1.131-0.419 2.333-1.379 3.38-0.689 0.286 0.189 0.494 0.473 0.59 0.802l1.105 3.74c0.121 0.413 0.257 0.847 0.613 1.147 0.595 0.502 1.589 0.452 2.387 0.212s1.549-0.635 2.39-0.728c1.331-0.148 2.63 0.512 3.438 1.405s0.331-3.574 0.077-6.927zM16.605 6.272l0.249 0.319-1.144 0.84-0.249-0.318 1.144-0.841zM16.132 5.859l-0.898 1.084-0.318-0.25 0.903-1.085 0.313 0.251zM14.91 5.171l0.363 0.175-0.629 1.254-0.363-0.175 0.629-1.254zM13.834 6.671c0.904-0.032 1.681 1.225 1.707 1.974s-0.685 1.379-1.588 1.41c-0.904 0.032-2.498-1.197-2.524-1.945s1.501-1.407 2.405-1.438v0zM10.955 17.32c0.017 0.282-0.197 0.525-0.479 0.541s-0.525-0.197-0.541-0.479 0.197-0.525 0.479-0.541c0.005 0 0.008 0 0.013-0.001 0.278-0.013 0.515 0.201 0.528 0.479 0 0 0 0 0 0.001zM9.843 8.927c0.026 0.748-0.685 1.38-1.587 1.411-0.903 0.031-2.498-1.198-2.524-1.946s1.498-1.407 2.407-1.438c0.909-0.032 1.682 1.225 1.708 1.974h-0.004zM9.728 17.363c0.017 0.282-0.197 0.525-0.479 0.541s-0.525-0.197-0.541-0.479c-0.017-0.282 0.197-0.525 0.479-0.541 0.005 0 0.010 0 0.014-0.001 0.277-0.015 0.515 0.197 0.529 0.476 0 0.001 0 0.004 0 0.005h-0.002zM6.094 5.616l0.715 1.209-0.35 0.199-0.715-1.206 0.35-0.201zM5.199 6.143l0.975 1.019-0.299 0.272-0.975-1.019 0.299-0.272zM4.456 6.86l1.2 0.759-0.226 0.334-1.197-0.758 0.222-0.335zM2.75 14.848c-0.257 0.004-0.468-0.202-0.471-0.459s0.202-0.467 0.459-0.471c0.252-0.004 0.462 0.196 0.47 0.448 0.005 0.259-0.199 0.473-0.458 0.482zM3.721 15.373c-0.257 0.004-0.467-0.202-0.471-0.459s0.202-0.467 0.459-0.471c0.252-0.004 0.462 0.196 0.47 0.448 0.004 0.257-0.199 0.471-0.456 0.482h-0.002zM4.692 15.898c-0.257 0.004-0.468-0.202-0.471-0.459s0.202-0.467 0.459-0.471c0.252-0.004 0.462 0.196 0.47 0.448 0.004 0.256-0.197 0.469-0.453 0.482h-0.005zM5.699 16.408c-0.275 0.002-0.501-0.219-0.503-0.494s0.219-0.501 0.494-0.503c0.27-0.002 0.492 0.211 0.502 0.481 0.006 0.276-0.212 0.506-0.488 0.516h-0.005zM6.947 16.959c-0.275 0.002-0.501-0.219-0.503-0.494s0.219-0.501 0.494-0.503c0.27-0.002 0.492 0.211 0.502 0.481 0.007 0.277-0.211 0.508-0.488 0.519l-0.005-0.002zM7.462 17.041c-0.018-0.282 0.196-0.525 0.478-0.542s0.525 0.196 0.542 0.478-0.196 0.525-0.478 0.542c-0.005 0-0.010 0-0.014 0.001-0.275 0.011-0.507-0.201-0.522-0.475l-0.006-0.005zM11.211 21.195l-1.144-0.514-1.099 0.597 0.174-1.179-0.939-0.801 1.251-0.214 0.525-1.090 0.6 1.050 1.262 0.126-0.88 0.864 0.251 1.16zM11.672 17.392c-0.275 0.002-0.501-0.219-0.503-0.494s0.219-0.501 0.494-0.503c0.27-0.002 0.494 0.212 0.502 0.482 0.007 0.278-0.213 0.51-0.491 0.517-0.001 0-0.002 0-0.004 0l0.002-0.002zM12.674 16.761c-0.275 0.002-0.501-0.219-0.503-0.494s0.219-0.501 0.494-0.503c0.27-0.002 0.492 0.211 0.502 0.481 0.006 0.277-0.213 0.508-0.49 0.516h-0.002zM13.676 16.131c-0.275 0.002-0.501-0.219-0.503-0.494s0.219-0.501 0.494-0.503c0.27-0.002 0.492 0.211 0.502 0.481 0.005 0.276-0.214 0.506-0.49 0.514l-0.002 0.002zM14.677 15.502c-0.275 0.002-0.501-0.219-0.503-0.494s0.219-0.501 0.494-0.503c0.27-0.002 0.492 0.211 0.502 0.481 0.002 0.275-0.215 0.502-0.49 0.51l-0.002 0.006zM15.68 14.871c-0.275 0.002-0.501-0.219-0.503-0.494s0.219-0.501 0.494-0.503c0.27-0.002 0.492 0.211 0.502 0.481 0.001 0.275-0.216 0.5-0.49 0.508l-0.002 0.008zM16.682 14.241c-0.275 0.002-0.501-0.219-0.503-0.494s0.219-0.501 0.494-0.503c0.27-0.002 0.494 0.212 0.502 0.482-0.004 0.272-0.222 0.494-0.496 0.498l0.004 0.017zM17.689 13.806c-0.275 0.002-0.501-0.219-0.503-0.494s0.219-0.501 0.494-0.503c0.27-0.002 0.494 0.212 0.502 0.482-0.001 0.272-0.218 0.495-0.491 0.503l-0.001 0.012z"></path>
  </symbol>

  <symbol id="icon-ghost4" viewBox="0 0 43 32">
  <title>ghost4</title>
  <path d="M26.080 9.979c-1.228-0.108-2.258 0.454-2.304 1.255s0.914 1.536 2.14 1.644 2.26-0.456 2.304-1.255-0.914-1.538-2.14-1.644z"></path>
  <path d="M33.166 9.979c-1.228 0.106-2.186 0.842-2.14 1.644s1.076 1.363 2.302 1.255 2.186-0.844 2.142-1.644-1.076-1.363-2.304-1.255z"></path>
  <path d="M42.243 22.243c-0.085-0.444-0.163-0.756-0.194-0.888-0.816-3.353-0.715-8.229-1.319-11.291-0.699-3.533-2.779-7.025-5.536-8.758-2.255-1.417-4.911-1.551-7.401-1.029-3.132 0.657-5.816 2.262-7.808 4.497l-0.012 0.014c-2.906 3.287-4.441 8-6.258 12.336-0.39 0.936-0.805 1.855-1.229 2.776-1.035 0.088-1.987 0.365-2.848 0.798l0.045-0.020c-1.007 0.513-1.909 1.296-2.88 1.909-1.478 0.967-3.288 1.542-5.233 1.542-0.554 0-1.097-0.047-1.626-0.136l0.057 0.008c0.553 2.599 2.612 4.392 4.735 4.829 0.416 0.084 0.894 0.133 1.383 0.133 0.521 0 1.030-0.055 1.52-0.159l-0.048 0.008c-0.704 1.089-1.43 2.157-2.184 3.192 1.843-0.708 3.976-1.118 6.204-1.118 0.575 0 1.143 0.027 1.704 0.081l-0.072-0.006c1.593 0.152 3.218 0.518 4.772 0.046 2.077-0.633 3.693-2.661 5.664-3.701 1.29-0.682 2.7-0.924 4.095-1.073 1.203-0.127 2.436-0.189 3.592 0.233 1.538 0.562 2.813 1.925 4.322 2.601 2.31 1.035 5.078 0.232 6.785-1.969 0.046-0.48 0.073-1.038 0.073-1.603 0-1.15-0.11-2.274-0.319-3.362l0.018 0.111zM36.873 10.421c-0.3 0.728-0.617 1.451-0.98 2.145-0.294 0.558-0.632 1.109-1.112 1.487-0.413 0.311-0.918 0.523-1.467 0.591l-0.015 0.002c-0.177 0.025-0.381 0.039-0.589 0.039-1.182 0-2.258-0.457-3.059-1.204l0.003 0.002c-0.629 0.696-1.306 1.417-2.175 1.662-1.051 0.297-2.183-0.184-3.015-0.939-1.058-0.958-1.736-2.309-2.375-3.629-0.668-1.378-1.331-2.776-1.657-4.292 0.722 0.402 0.831 0.444 1.384 0.743s1.708 0.95 2.449 1.169c2.989 0.883 6.178 1.278 9.189 0.49 0.838-0.222 1.652-0.532 2.485-0.779 0.79-0.233 1.633-0.426 2.255-0.998q-0.604 1.776-1.319 3.51z"></path>
  </symbol>

  <symbol id="icon-ghost5" viewBox="0 0 43 32">
  <title>ghost5</title>
  <path d="M22.069 12.698c-1.23-2.973-2.592-5.943-4.652-8.357s-4.933-4.244-8.029-4.337c-3.319-0.101-6.612 1.961-8.097 5.068-1.044 2.186-1.212 4.705-1.267 7.147-0.113 5.050 0.14 10.996 0.83 15.996l0.036 0.049c0.652-0.139 1.401-0.218 2.168-0.218 0.927 0 1.826 0.116 2.685 0.333l-0.075-0.016c0.831 0.205 1.634 0.503 2.486 0.641 3.638 0.573 7-2.046 10.626-2.693 1.206-0.215 2.487-0.2 3.598 0.331 0.834 0.397 1.523 1.059 2.196 1.709l3.78 3.65c-1.85-7.548-4.004-13.982-6.613-20.177l0.327 0.875zM23.168 25.547c-0.554-0.503-1.12-1.006-1.805-1.318-0.914-0.409-1.968-0.421-2.958-0.251-2.982 0.503-5.747 2.514-8.738 2.077-0.694-0.102-1.36-0.337-2.044-0.495-0.643-0.155-1.382-0.244-2.142-0.244-0.631 0-1.247 0.061-1.844 0.178l0.060-0.010-0.030-0.038c-0.567-3.857-0.776-8.442-0.681-12.337 0.045-1.886 0.184-3.826 1.041-5.512 1.221-2.396 3.928-3.987 6.657-3.91 2.545 0.072 4.903 1.481 6.599 3.344s2.816 4.149 3.824 6.447c1.885 4.132 3.652 9.085 5.016 14.202l0.155 0.685z"></path>
  <path d="M9.703 11.761c0 1.704-0.88 3.085-1.966 3.085s-1.966-1.381-1.966-3.085c0-1.704 0.88-3.085 1.966-3.085s1.966 1.381 1.966 3.085z"></path>
  <path d="M15.602 11.761c0 1.704-0.88 3.085-1.966 3.085s-1.966-1.381-1.966-3.085c0-1.704 0.88-3.085 1.966-3.085s1.966 1.381 1.966 3.085z"></path>
  </symbol>

</svg>
